<svg id="Ebene_1" data-name="Ebene 1" xmlns="http://www.w3.org/2000/svg" viewBox="0 0 769.31315 245.85547"><defs><style>.cls-1{fill:#fff;}.cls-2{fill:none;stroke:#fff;stroke-miterlimit:10;stroke-width:7px;}</style></defs><path class="cls-1" d="M218.27539,512.25,208.959,481.66406h-46.8457L152.79688,512.25H123.44141L168.793,383.22656h33.31055L247.63086,512.25Zm-15.82031-53.4375-9.31641-29.88281q-.87963-2.98681-2.3291-7.69043-1.4502-4.70068-2.90039-9.58008-1.4502-4.87792-2.3291-8.48145-.87965,3.605-2.417,8.9209-1.53882,5.31885-2.94434,10.06348-1.407,4.74609-2.02148,6.76758l-9.22852,29.88281Z" transform="translate(-122.99545 -375.49219)"/><path class="cls-1" d="M330.24805,483.07031q0,10.01953-4.70215,16.91895-4.70289,6.90087-14.01856,10.459-9.31713,3.55957-23.20312,3.55957a101.2917,101.2917,0,0,1-17.62207-1.31836,72.50257,72.50257,0,0,1-14.80957-4.39453V486.14648a103.7229,103.7229,0,0,0,17.18262,5.93262,66.69784,66.69784,0,0,0,16.12792,2.3291q7.82154,0,11.20606-2.3291a7.11082,7.11082,0,0,0,3.38379-6.1084,7.6489,7.6489,0,0,0-1.36231-4.43847q-1.36377-1.97754-5.84472-4.48243a154.6255,154.6255,0,0,0-14.0625-6.54785,91.07146,91.07146,0,0,1-15.16114-7.82226,25.83462,25.83462,0,0,1-8.78906-9.36035q-2.85717-5.40528-2.85644-13.75489,0-13.62231,10.59082-20.52246,10.59009-6.89868,28.34472-6.89941a80.23068,80.23068,0,0,1,17.44629,1.8457,85.35384,85.35384,0,0,1,17.09473,5.88867l-8.08594,19.33594a139.69939,139.69939,0,0,0-13.75488-5.18555,43.77528,43.77528,0,0,0-13.13965-2.02148q-5.88941,0-8.877,1.582a5.14892,5.14892,0,0,0-2.98828,4.834,6.40215,6.40215,0,0,0,1.53808,4.21874,19.5003,19.5003,0,0,0,5.97656,4.08692q4.437,2.24121,13.05176,5.75684a104.66892,104.66892,0,0,1,14.502,7.16308,27.62149,27.62149,0,0,1,9.49218,9.22852Q330.24732,474.36987,330.24805,483.07031Z" transform="translate(-122.99545 -375.49219)"/><path class="cls-1" d="M392.5625,492.65039a41.45853,41.45853,0,0,0,8.56934-.87891,84.55736,84.55736,0,0,0,8.30566-2.19726v19.95117a50.48311,50.48311,0,0,1-10.67871,3.208,71.20052,71.20052,0,0,1-13.93067,1.27441,41.38561,41.38561,0,0,1-15.77636-2.85644,21.98785,21.98785,0,0,1-10.98633-9.93164q-4.00049-7.07373-3.999-19.73145v-47.373h-12.832V422.77734L356,413.8125l7.73438-20.74219h17.13867v20.918h27.50976v20.127H380.87305v47.373q0,5.62574,3.208,8.39356A12.52551,12.52551,0,0,0,392.5625,492.65039Z" transform="translate(-122.99545 -375.49219)"/><path class="cls-1" d="M484.14453,412.14258q2.02076,0,4.70215.21972a36.6069,36.6069,0,0,1,4.35059.57129l-2.02149,25.13672a17.44756,17.44756,0,0,0-3.73535-.65918q-2.41846-.21827-4.17481-.21972a38.39439,38.39439,0,0,0-10.06347,1.31836,25.089,25.089,0,0,0-8.74512,4.26269,20.36373,20.36373,0,0,0-6.1084,7.73438,27.58168,27.58168,0,0,0-2.24121,11.73339V512.25H429.30078V413.98828h20.30274l3.95507,16.52344H454.877a41.56825,41.56825,0,0,1,7.251-9.18457,34.82811,34.82811,0,0,1,9.93164-6.67969A29.166,29.166,0,0,1,484.14453,412.14258Z" transform="translate(-122.99545 -375.49219)"/><path class="cls-1" d="M551.293,411.9668q19.77538,0,30.32226,8.61328,10.54688,8.61474,10.54688,26.1914V512.25h-18.7207l-5.18555-13.35938h-.70313a49.77985,49.77985,0,0,1-8.61328,8.61329,29.53942,29.53942,0,0,1-10.10742,4.92187,52.67607,52.67607,0,0,1-13.88672,1.582,35.35871,35.35871,0,0,1-15.60058-3.33984,24.71216,24.71216,0,0,1-10.8545-10.23926q-3.95506-6.89868-3.95507-17.53418,0-15.64306,10.98632-23.07129,10.98633-7.426,32.959-8.21777l17.05078-.52735v-4.30664q0-7.7329-4.043-11.33789-4.043-3.60277-11.25-3.60351a49.17682,49.17682,0,0,0-13.97461,2.02148,108.55914,108.55914,0,0,0-13.71094,5.09766l-8.87695-18.10547A76.09725,76.09725,0,0,1,531.21,414.33984,84.30059,84.30059,0,0,1,551.293,411.9668Zm14.23828,54.75586-10.37109.35156q-13.00782.35229-18.06153,4.6582a14.16743,14.16743,0,0,0-5.05371,11.33789q0,6.15308,3.60352,8.74512a15.73427,15.73427,0,0,0,9.40429,2.59277,21.54422,21.54422,0,0,0,14.5459-5.09765q5.93262-5.09619,5.93262-14.502Z" transform="translate(-122.99545 -375.49219)"/><path class="cls-1" d="M646.56641,512.25H619.75977V375.49219h26.80664Z" transform="translate(-122.99545 -375.49219)"/><path class="cls-1" d="M688.13867,375.49219a18.60545,18.60545,0,0,1,10.28321,2.76855q4.30517,2.76857,4.30664,10.32715,0,7.47144-4.30664,10.32715a20.01715,20.01715,0,0,1-20.61036,0q-4.26415-2.855-4.26269-10.32715,0-7.55786,4.26269-10.32715A18.55178,18.55178,0,0,1,688.13867,375.49219Zm13.35938,38.49609V512.25H674.69141V413.98828Z" transform="translate(-122.99545 -375.49219)"/><path class="cls-1" d="M771.01953,492.65039a41.45159,41.45159,0,0,0,8.56934-.87891,84.55736,84.55736,0,0,0,8.30566-2.19726v19.95117a50.46532,50.46532,0,0,1-10.67871,3.208,71.1969,71.1969,0,0,1-13.93066,1.27441,41.3874,41.3874,0,0,1-15.77637-2.85644,21.98986,21.98986,0,0,1-10.98633-9.93164q-4.00049-7.07373-3.999-19.73145v-47.373h-12.832V422.77734L734.457,413.8125l7.73438-20.74219h17.13867v20.918h27.50976v20.127H759.33008v47.373q0,5.62574,3.208,8.39356A12.52634,12.52634,0,0,0,771.01953,492.65039Z" transform="translate(-122.99545 -375.49219)"/><path class="cls-1" d="M848.27539,412.14258q13.623,0,23.4668,5.22949a36.3173,36.3173,0,0,1,15.20508,15.16113q5.35986,9.9331,5.36132,24.25782v13.00781H828.93945q.43946,11.33788,6.81153,17.79785t17.71,6.46a71.749,71.749,0,0,0,17.22656-1.93359,87.51736,87.51736,0,0,0,16.084-5.80078v20.74218a63.90423,63.90423,0,0,1-15.249,5.27344,95.53443,95.53443,0,0,1-19.292,1.66992q-14.76562,0-26.14746-5.44922a40.3632,40.3632,0,0,1-17.8418-16.61132q-6.46-11.16064-6.46-28.125,0-17.2251,5.84473-28.69629a39.53818,39.53818,0,0,1,16.30371-17.22657Q834.38867,412.144,848.27539,412.14258Zm.17578,19.07226a17.81986,17.81986,0,0,0-12.96387,5.00977q-5.1416,5.00976-5.93261,15.73242h37.61719a27.01254,27.01254,0,0,0-2.15333-10.63476,16.89947,16.89947,0,0,0-6.15234-7.38282A18.41769,18.41769,0,0,0,848.45117,431.21484Z" transform="translate(-122.99545 -375.49219)"/><path class="cls-1" d="M281.294,606.96875a13.169,13.169,0,0,1-2.26758,7.78711,14.15571,14.15571,0,0,1-6.34571,4.9043,24.99577,24.99577,0,0,1-9.59765,1.6875,51.42244,51.42244,0,0,1-5.51953-.28125,37.71873,37.71873,0,0,1-4.78125-.8086,20.33642,20.33642,0,0,1-3.832-1.30078v-5.73047a45.37923,45.37923,0,0,0,6.43359,2.02149,33.22938,33.22938,0,0,0,7.94531.93164,18.1369,18.1369,0,0,0,6.53906-1.03711,8.65868,8.65868,0,0,0,4.06055-2.98828,8.78766,8.78766,0,0,0,.22852-9.10547,10.37081,10.37081,0,0,0-3.84961-3.23438,53.58272,53.58272,0,0,0-7.33008-3.11133,38.05878,38.05878,0,0,1-5.76563-2.54882,17.61154,17.61154,0,0,1-4.18359-3.14649,11.70333,11.70333,0,0,1-2.54883-4.07812,15.193,15.193,0,0,1-.86133-5.3086,11.82763,11.82763,0,0,1,2.0918-7.04882,13.23848,13.23848,0,0,1,5.80078-4.5,21.77739,21.77739,0,0,1,8.52539-1.56446,35.24948,35.24948,0,0,1,7.61133.77344,33.4793,33.4793,0,0,1,6.416,2.07422l-1.86328,5.13281a40.77579,40.77579,0,0,0-5.88868-1.93359,26.49557,26.49557,0,0,0-6.416-.77344,14.21608,14.21608,0,0,0-5.57227.9668,7.70521,7.70521,0,0,0-3.46289,2.72461,7.2597,7.2597,0,0,0-1.19531,4.18359,8.22265,8.22265,0,0,0,1.14258,4.5,9.83818,9.83818,0,0,0,3.65625,3.18164,48.42337,48.42337,0,0,0,6.66211,2.90039,47.97749,47.97749,0,0,1,7.69922,3.498,13.566,13.566,0,0,1,4.8164,4.5A12.542,12.542,0,0,1,281.294,606.96875Z" transform="translate(-122.99545 -375.49219)"/><path class="cls-1" d="M346.43555,620.64453h-6.01172v-46.125H324.252v-5.27344h38.28516v5.27344H346.43555Z" transform="translate(-122.99545 -375.49219)"/><path class="cls-1" d="M448.07031,569.24609v33.25782a20.85017,20.85017,0,0,1-2.19726,9.70312,15.87157,15.87157,0,0,1-6.627,6.69727,22.78772,22.78772,0,0,1-11.10937,2.44336q-9.52734,0-14.502-5.168-4.97609-5.168-4.97461-13.81641V569.24609h6.01172v33.293q0,6.53907,3.46289,10.08985,3.46141,3.55077,10.35351,3.55078a15.51619,15.51619,0,0,0,7.7168-1.70508,10.61335,10.61335,0,0,0,4.46484-4.78125,16.45064,16.45064,0,0,0,1.459-7.11914V569.24609Z" transform="translate(-122.99545 -375.49219)"/><path class="cls-1" d="M541.37207,594.45312q0,8.68361-3.16406,14.502a20.37194,20.37194,0,0,1-9.15821,8.7539,32.80742,32.80742,0,0,1-14.5371,2.93555h-13.957V569.24609h15.50391a29.57205,29.57205,0,0,1,13.5,2.86524,20.12725,20.12725,0,0,1,8.73633,8.47265Q541.37207,586.19142,541.37207,594.45312Zm-6.293.21094a24.999,24.999,0,0,0-2.30273-11.42578,14.76683,14.76683,0,0,0-6.75-6.69726,24.39878,24.39878,0,0,0-10.88086-2.19727h-8.61328v41.168h7.27734q10.61719,0,15.94336-5.23828T535.0791,594.66406Z" transform="translate(-122.99545 -375.49219)"/><path class="cls-1" d="M591.67773,620.64453V569.24609h5.97657v51.39844Z" transform="translate(-122.99545 -375.49219)"/><path class="cls-1" d="M695.24512,594.875a36.35373,36.35373,0,0,1-1.51172,10.81055,23.52443,23.52443,0,0,1-4.48242,8.36718,19.81726,19.81726,0,0,1-7.36524,5.39649,25.5238,25.5238,0,0,1-10.19531,1.89844,26.39814,26.39814,0,0,1-10.42383-1.89844,19.33716,19.33716,0,0,1-7.38281-5.41406,23.35232,23.35232,0,0,1-4.39453-8.40235,37.75852,37.75852,0,0,1-1.459-10.82812,34.19049,34.19049,0,0,1,2.60157-13.81641,20.133,20.133,0,0,1,7.89257-9.24609q5.291-3.3047,13.27149-3.30469a23.75884,23.75884,0,0,1,12.84961,3.26953,20.60129,20.60129,0,0,1,7.91015,9.19336A33.55745,33.55745,0,0,1,695.24512,594.875Zm-40.92188,0a31.13088,31.13088,0,0,0,1.86328,11.32031,15.35206,15.35206,0,0,0,5.71289,7.38281,19.72506,19.72506,0,0,0,19.582,0,15.22933,15.22933,0,0,0,5.64257-7.38281,31.67065,31.67065,0,0,0,1.82813-11.32031q0-9.94921-4.166-15.55664t-12.99023-5.60742a17.45865,17.45865,0,0,0-9.84375,2.5664,15.23352,15.23352,0,0,0-5.748,7.29493A30.55458,30.55458,0,0,0,654.32324,594.875Z" transform="translate(-122.99545 -375.49219)"/><path class="cls-1" d="M774.55469,606.96875a13.169,13.169,0,0,1-2.26758,7.78711,14.15568,14.15568,0,0,1-6.3457,4.9043,24.99582,24.99582,0,0,1-9.59766,1.6875,51.42244,51.42244,0,0,1-5.51953-.28125,37.71873,37.71873,0,0,1-4.78125-.8086,20.33642,20.33642,0,0,1-3.832-1.30078v-5.73047a45.37923,45.37923,0,0,0,6.43359,2.02149,33.22938,33.22938,0,0,0,7.94531.93164,18.137,18.137,0,0,0,6.53907-1.03711,8.65865,8.65865,0,0,0,4.06054-2.98828,8.78766,8.78766,0,0,0,.22852-9.10547,10.37081,10.37081,0,0,0-3.84961-3.23438,53.58272,53.58272,0,0,0-7.33008-3.11133,38.0582,38.0582,0,0,1-5.76562-2.54882,17.6114,17.6114,0,0,1-4.1836-3.14649,11.70333,11.70333,0,0,1-2.54883-4.07812,15.19328,15.19328,0,0,1-.86132-5.3086,11.82763,11.82763,0,0,1,2.09179-7.04882,13.23848,13.23848,0,0,1,5.80078-4.5,21.7774,21.7774,0,0,1,8.5254-1.56446,35.24945,35.24945,0,0,1,7.61132.77344,33.47907,33.47907,0,0,1,6.416,2.07422l-1.86328,5.13281a40.77566,40.77566,0,0,0-5.88867-1.93359,26.49559,26.49559,0,0,0-6.416-.77344,14.21608,14.21608,0,0,0-5.57227.9668,7.70526,7.70526,0,0,0-3.46289,2.72461,7.2597,7.2597,0,0,0-1.19531,4.18359,8.22265,8.22265,0,0,0,1.14258,4.5,9.83818,9.83818,0,0,0,3.65625,3.18164,48.42337,48.42337,0,0,0,6.66211,2.90039,47.97709,47.97709,0,0,1,7.69922,3.498,13.566,13.566,0,0,1,4.8164,4.5A12.54188,12.54188,0,0,1,774.55469,606.96875Z" transform="translate(-122.99545 -375.49219)"/><line class="cls-2" x1="0.00455" y1="164.00781" x2="769.00455" y2="163.00781"/></svg>